<?xml version="1.0" encoding="UTF-8"?>
<svg width="85px" height="58px" viewBox="0 0 85 58" version="1.1" xmlns="http://www.w3.org/2000/svg" xmlns:xlink="http://www.w3.org/1999/xlink">
    <!-- Generator: Sketch 53.2 (72643) - https://sketchapp.com -->
    <title>Logo</title>
    <desc>Created with Sketch.</desc>
    <defs>
        <polygon id="path-1" points="0 0.0973049221 25.2751515 0.0973049221 25.2751515 7.28843868 0 7.28843868"></polygon>
        <polygon id="path-3" points="0 0.1711 24.7238974 0.1711 24.7238974 7.15986116 0 7.15986116"></polygon>
        <polygon id="path-5" points="0.257944052 0.177947859 7.59744951 0.177947859 7.59744951 7.38679245 0.257944052 7.38679245"></polygon>
        <polygon id="path-7" points="0.0421400651 0.122292453 14.1172541 0.122292453 14.1172541 4.24913237 0.0421400651 4.24913237"></polygon>
    </defs>
    <g id="Page-1" stroke="none" stroke-width="1" fill="none" fill-rule="evenodd">
        <g id="Desktop-HD-Copy-2" transform="translate(-88.000000, -32.000000)">
            <g id="Header" transform="translate(88.000000, 32.000000)">
                <g id="Logo">
                    <g id="Group-3" transform="translate(0.000000, 13.830538)">
                        <mask id="mask-2" fill="white">
                            <use xlink:href="#path-1"></use>
                        </mask>
                        <g id="Clip-2"></g>
                        <path d="M-2.76872964e-05,6.89940094 C1.6437671,5.63024057 3.29143811,4.36600472 4.92997231,3.0902783 C5.95550977,2.29168396 6.93979316,1.43782547 7.99938599,0.687108491 C8.4274316,0.383976415 9.00526547,0.128995283 9.51692671,0.124891509 C14.529158,0.0838537736 19.5416661,0.0994481132 24.5538974,0.104099057 C24.7410635,0.104372642 24.9279528,0.159363208 25.2751515,0.214353774 C25.1123502,0.622542453 25.0248583,0.987778302 24.8360309,1.29145755 C23.8085554,2.94199528 22.7475782,4.57228774 21.7198257,6.22255189 C21.5177085,6.54702358 21.4108355,6.92894811 21.2602166,7.28433491 C14.1733762,7.28570283 7.0868127,7.28707075 -2.76872964e-05,7.28843868 L-2.76872964e-05,6.89940094 Z" id="Fill-1" fill="#EBE3B5" mask="url(#mask-2)"></path>
                    </g>
                    <g id="Group-6" transform="translate(0.000000, 20.943745)">
                        <mask id="mask-4" fill="white">
                            <use xlink:href="#path-3"></use>
                        </mask>
                        <g id="Clip-5"></g>
                        <path d="M-2.76872964e-05,0.175203774 C7.0868127,0.173835849 14.1733762,0.172467925 21.2602166,0.1711 C22.2276107,2.07224151 23.1963893,3.97310943 24.1618453,5.87534528 C24.3318453,6.21021321 24.4882785,6.55192075 24.7238974,7.04191132 C24.2235879,7.08951509 23.8841417,7.14943019 23.5446954,7.14970377 C18.3740928,7.15572264 13.2029365,7.18061887 8.0331645,7.11988302 C7.39358795,7.11222264 6.61668241,6.78966604 6.14793648,6.35521321 C4.05034691,4.41111887 2.0410798,2.37345849 -2.76872964e-05,0.369722642 L-2.76872964e-05,0.175203774 Z" id="Fill-4" fill="#BDAB36" mask="url(#mask-4)"></path>
                    </g>
                    <g id="Group-9" transform="translate(31.009772, 50.490915)">
                        <mask id="mask-6" fill="white">
                            <use xlink:href="#path-5"></use>
                        </mask>
                        <g id="Clip-8"></g>
                        <path d="M3.23836156,7.38684717 C3.08248208,7.28616792 2.93740065,7.16141321 2.76933876,7.08836604 C0.915120521,6.28402642 0.111635179,5.08244151 0.279697068,3.34763962 C0.420625407,1.89244151 1.6352671,0.709460377 3.43411075,0.316045283 C4.90485993,-0.00569056604 6.27178176,0.217554717 7.59744951,1.16744151 C7.2596645,1.47850755 6.98389902,1.73212075 6.74938762,1.94797925 C6.63199349,1.93703585 6.59516938,1.94360189 6.56858958,1.92992264 C5.65352443,1.45689434 4.68446906,0.936262264 3.73424104,1.70065849 C2.69430619,2.53728113 2.88839414,3.76047925 3.10324756,4.86603585 C3.34495765,6.11084717 4.60583713,6.61178113 5.91240065,5.92617736 C6.71090228,5.50731887 7.09686319,5.75299811 7.55785668,6.46322453 C6.96036482,6.77675283 6.37865472,7.0818 5.7972215,7.38684717 L3.23836156,7.38684717 Z" id="Fill-7" fill="#BDAB38" mask="url(#mask-6)"></path>
                    </g>
                    <path d="M26.2446498,22.9377142 L58.6171906,22.9377142 C57.7237215,24.1130349 56.900855,25.2196858 56.0525163,26.3069123 C53.7209691,29.294733 51.3769625,32.2729783 49.0409853,35.257516 C47.1247476,37.7058274 45.2212459,40.1639877 43.2947638,42.6043651 C42.5798779,43.5099311 42.3569951,43.4814783 41.6279886,42.5474594 C36.9648941,36.5729123 32.3001384,30.5991858 27.6328909,24.6273745 C27.2361319,24.1198745 26.815285,23.6307047 26.2446498,22.9377142" id="Fill-10" fill="#E3E3E0"></path>
                    <path d="M25.4055033,20.8390717 C26.3992003,19.1836094 27.3430603,17.6085811 28.2899658,16.0354679 C28.5070342,15.674883 28.7612036,15.3337226 28.9514153,14.9602792 C29.3387606,14.1997132 29.9880277,13.925034 30.7973274,13.9247604 C38.6641189,13.9231189 46.5311873,13.923666 54.3982557,13.923666 C55.295601,13.923666 55.9027834,14.2760434 56.3316596,15.1197792 C57.0789397,16.5900245 57.9569039,17.9954302 58.7706336,19.4331189 C59.0065293,19.8503358 59.2103078,20.2853358 59.4938257,20.8390717 L25.4055033,20.8390717 Z" id="Fill-12" fill="#E3E3E3"></path>
                    <path d="M63.6228876,21.1660877 C62.9165847,19.9043142 62.2274479,18.6329651 61.4989951,17.3835028 C60.8729853,16.3096821 60.2021221,15.2607575 59.4313078,14.0060972 C60.0429202,13.969984 60.3837508,13.93305 60.7245814,13.9325028 C65.4729528,13.9289462 70.2218779,13.9037764 74.9696954,13.958767 C75.672399,13.9669745 76.4991417,14.1904934 77.0484577,14.6016915 C79.4926922,16.4314274 81.862171,18.3585594 84.2413404,20.2717387 C84.499386,20.4793896 84.6433599,20.8257481 84.8402166,21.1075406 C77.9618616,21.1020689 71.0835065,21.09605 64.2051515,21.0941349 C64.0110635,21.0941349 63.8169756,21.1411915 63.6228876,21.1660877" id="Fill-14" fill="#EBE3B5"></path>
                    <path d="M63.6228876,21.1660877 C63.8169756,21.1411915 64.0110635,21.0941349 64.2051515,21.0941349 C71.0835065,21.09605 77.9618616,21.1020689 84.8402166,21.1075406 C84.6920896,21.345833 84.5835554,21.6227009 84.3897443,21.8163991 C82.5000863,23.7044085 80.6203958,25.6033613 78.6759169,27.4350123 C78.292171,27.7964179 77.6456726,28.0648047 77.1179528,28.0694557 C71.7765195,28.1154179 66.4345326,28.0984557 61.0925456,28.0935311 C60.8754772,28.0932575 60.6584088,28.0347104 60.2965358,27.9821821 C60.4460472,27.5898613 60.5352003,27.2623802 60.6888648,26.9674557 C61.5277899,25.3574085 62.3883111,23.7577575 63.2277899,22.1477104 C63.3903143,21.8360972 63.4927573,21.494116 63.6228876,21.1660877" id="Fill-16" fill="#BDAB36"></path>
                    <path d="M9.10325081,29.8974406 C9.38566124,29.8823934 9.66807166,29.8544877 9.95048208,29.8542142 C14.8682997,29.8514783 19.7863941,29.868167 24.7039349,29.8369783 C25.5334463,29.8317802 26.0307101,30.0878557 26.4003355,30.836384 C27.2135114,32.4828179 28.1072573,34.0906764 29.0544397,35.8774594 C28.526443,35.9160349 28.1869967,35.96145 27.8475505,35.9619972 C24.2083322,35.9671953 20.569114,35.9518745 16.9298958,35.9756764 C16.1313941,35.9808745 15.4915407,35.779516 14.8851889,35.2375443 C13.1353518,33.673733 11.3398306,32.1594406 9.55621498,30.632016 C9.36074267,30.4645821 9.12733876,30.3401009 8.91165472,30.1959217 C8.97561238,30.0963368 9.03929316,29.9970255 9.10325081,29.8974406" id="Fill-18" fill="#BDAB36"></path>
                    <path d="M55.9731922,35.8250679 C56.2420358,35.2727 56.4621498,34.7857189 56.7121661,34.3140585 C57.3500814,33.1097377 57.9575407,31.886266 58.6721498,30.727634 C58.9074919,30.345983 59.4313355,29.8948415 59.8278176,29.8907377 C65.1692508,29.8357472 70.5117915,29.8538038 76.0146417,29.8538038 C75.81557,30.1180868 75.7194951,30.3030302 75.5727524,30.4313415 C73.6565147,32.1040396 71.7483062,33.7863132 69.7977362,35.4196151 C69.4519218,35.7093415 68.9253094,35.9350491 68.479544,35.9394264 C64.512785,35.9788226 60.5451954,35.9629547 56.5778827,35.9572094 C56.4267101,35.9569358 56.2758143,35.8931906 55.9731922,35.8250679" id="Fill-20" fill="#BAAB36"></path>
                    <path d="M30.115057,6.13642736 C30.0707573,6.43709717 30.0906922,6.58291792 30.0295033,6.6775783 C28.9372394,8.36450283 27.8532818,10.0574462 26.7158876,11.71455 C26.5475489,11.9599557 26.1189495,12.1610406 25.8094055,12.1629557 C20.9596987,12.189767 16.1099919,12.1812858 11.2600081,12.1758142 C11.1445521,12.1755406 11.0288192,12.1169934 10.7411482,12.0387481 C11.9760016,10.9449557 13.0962296,9.9400783 14.2311319,8.95161604 C14.9659528,8.31224811 15.7758062,7.74838962 16.4535912,7.0564934 C17.1225163,6.37362547 17.8448779,6.10605943 18.8050733,6.11891792 C22.1798779,6.16405943 25.5552362,6.13642736 28.9305945,6.13642736 L30.115057,6.13642736 Z" id="Fill-22" fill="#EBE3B8"></path>
                    <path d="M54.9533029,6.13642736 L56.9789055,6.13642736 C60.0624397,6.13642736 63.1468046,6.10305 66.2289544,6.16378585 C66.8671466,6.17637075 67.6307622,6.37964434 68.1089218,6.76813491 C70.0780423,8.3686066 71.9599479,10.0733142 73.8706482,11.7438236 C73.9592476,11.8212481 74.0132378,11.9375217 74.1569349,12.138333 C73.8725863,12.1585783 73.6931726,12.1821066 73.513759,12.1823802 C68.8229772,12.1842953 64.1319186,12.1919557 59.4411368,12.1687009 C59.0562834,12.1667858 58.4801107,12.0680217 58.3195244,11.8133142 C57.1990195,10.035833 56.1646221,8.20527642 54.9533029,6.13642736" id="Fill-24" fill="#EBE3B8"></path>
                    <path d="M32.8183339,43.0979123 L31.3669658,43.0979123 C28.9069495,43.0979123 26.445272,43.145516 23.9880244,43.0645349 C23.3717052,43.044016 22.6438062,42.7479972 22.1847508,42.3398085 C20.8452394,41.1499877 19.6134316,39.8411575 18.3453534,38.5733651 C18.1484967,38.3766575 17.982373,38.1501292 17.6584316,37.7682047 C18.1817215,37.7342802 18.4926498,37.6973462 18.8033013,37.6967991 C22.1160863,37.6926953 25.4294251,37.71595 28.7416564,37.6795632 C29.6071612,37.6699877 30.1520472,37.9517802 30.5327476,38.7273934 C31.2121938,40.1128274 31.9597508,41.4659783 32.8183339,43.0979123" id="Fill-26" fill="#BDAB38"></path>
                    <path d="M52.2559511,42.9595057 C52.417645,42.5693736 52.5441759,42.1882698 52.7271889,41.8353453 C53.3083453,40.7139208 53.8659674,39.5760811 54.5290782,38.502534 C54.7502997,38.1446849 55.2580847,37.7386849 55.6404463,37.7332132 C59.3715863,37.6784962 63.1041107,37.7033925 66.8360814,37.7124208 C66.9180358,37.7126943 66.9997134,37.795317 67.3853974,38.0032415 C66.8452182,38.4264774 66.3698274,38.7517698 65.9503648,39.1367038 C64.7274169,40.2594962 63.5454463,41.426883 62.3039479,42.528883 C61.9880358,42.8093075 61.5129218,43.0645623 61.1064723,43.0708547 C58.2920586,43.1151755 55.4759837,43.0913736 52.6607394,43.084534 C52.5704788,43.0842604 52.4799414,43.0306377 52.2559511,42.9595057" id="Fill-28" fill="#BDAB38"></path>
                    <path d="M63.5957264,54.9335236 C64.1242769,53.7395991 64.6054821,52.7626274 64.9883974,51.7492689 C65.2450586,51.069684 65.6202215,50.7799575 66.3647329,50.8727028 C66.9043583,50.9402783 67.4594886,50.8858349 68.0611336,50.8858349 L68.0611336,57.6042594 L65.6193909,57.6042594 L65.6193909,54.0999104 C65.5424202,54.0862311 65.4651726,54.0728255 65.388202,54.0591462 C64.952127,55.0497972 64.4897492,56.0300519 64.0904984,57.0349292 C63.8894886,57.5407877 63.5910195,57.7109575 63.0549935,57.684967 C62.546101,57.6603443 62.1343909,57.6669104 61.8774528,57.0814387 C61.3860033,55.9624764 60.7957101,54.8859198 60.1004821,53.8192123 L60.1004821,57.5919481 L58.5394723,57.5919481 L58.5394723,50.8915802 C59.4420782,50.8915802 60.3790163,50.8494481 61.3070945,50.9219481 C61.5305309,50.9394575 61.7841466,51.3057877 61.9200912,51.5648726 C62.4694072,52.61325 62.9782997,53.6821462 63.5957264,54.9335236" id="Fill-30" fill="#BDAB38"></path>
                    <path d="M8.89761726,57.6210302 L7.32054886,57.6210302 L7.32054886,50.8872849 C8.21512541,50.8872849 9.09059772,50.8470679 9.95776384,50.9132755 C10.1975358,50.9313321 10.4965586,51.2207849 10.6253046,51.4607189 C11.2036922,52.5380962 11.7303046,53.6425585 12.3618518,54.9103509 C12.8685293,53.7938509 13.3655163,52.8535396 13.7215749,51.863983 C13.9940179,51.1061528 14.3874544,50.7628038 15.2169658,50.8730585 C15.7277964,50.9409075 16.2552394,50.8856434 16.8444251,50.8856434 L16.8444251,57.5895679 L14.4300928,57.5895679 L14.4300928,53.998766 C14.362259,53.9774264 14.2941482,53.9563604 14.2260375,53.9352943 C13.8096205,54.8725962 13.3898811,55.8088038 12.9776173,56.7480208 C12.7594414,57.2451245 12.6315261,57.7104925 11.8560049,57.7080302 C11.0832524,57.7052943 10.7640179,57.3852 10.4890831,56.7647094 C10.0433176,55.7590113 9.52778013,54.7834075 8.89761726,53.8006906 L8.89761726,57.6210302 Z" id="Fill-32" fill="#BDAB38"></path>
                    <path d="M50.945816,0.297633019 L53.5943827,0.297633019 C55.4300505,0.297633019 57.2679332,0.248114151 59.1002785,0.324717925 C59.7431775,0.351529245 60.4768909,0.545774528 60.9879984,0.911010377 C62.4061417,1.92436887 63.7287638,3.06768019 65.258487,4.29525566 C64.9121189,4.36228396 64.8016466,4.40250094 64.6911743,4.40250094 C61.2820375,4.40578396 57.8726238,4.41563302 54.4637638,4.38936887 C54.1041059,4.38663302 53.593829,4.27446321 53.4138616,4.02768962 C52.5995782,2.91228396 51.8788779,1.73012358 50.945816,0.297633019" id="Fill-34" fill="#EBE3B8"></path>
                    <g id="Group-38" transform="translate(19.934853, 0.151292)">
                        <mask id="mask-8" fill="white">
                            <use xlink:href="#path-7"></use>
                        </mask>
                        <g id="Clip-37"></g>
                        <path d="M14.1172541,0.240535849 C13.1545668,1.64129057 12.3834756,2.79253585 11.5708534,3.91450755 C11.4418306,4.09288491 11.1275798,4.23296038 10.8980521,4.2343283 C7.36985993,4.2543 3.84166775,4.24828113 0.0421400651,4.24828113 C0.513654723,3.81847925 0.795511401,3.53258302 1.10754723,3.28334717 C1.89414332,2.65492264 2.72365472,2.07601698 3.48200977,1.41640377 C4.50837785,0.523696226 5.60922476,0.0471113208 7.03567427,0.131922642 C8.92865472,0.244092453 10.8335407,0.156545283 12.733443,0.162290566 C13.0787036,0.163384906 13.4236873,0.200045283 14.1172541,0.240535849" id="Fill-36" fill="#EBE3B8" mask="url(#mask-8)"></path>
                    </g>
                    <path d="M25.5776075,57.672984 C24.8624446,57.672984 24.3070375,57.639333 23.7574446,57.6817387 C23.1339267,57.7298896 22.7044967,57.6100594 22.5070863,56.9277387 C22.4475586,56.7222764 22.054399,56.5187292 21.790816,56.4828896 C21.2772166,56.4131255 20.744513,56.4322764 20.2250993,56.4765972 C20.0000016,56.4960217 19.6273306,56.6341821 19.596044,56.777267 C19.3200016,58.0346632 18.3982915,57.6382387 17.4854414,57.6313991 C18.4254251,55.4501066 19.3219397,53.3454179 20.2525098,51.2555028 C20.3305879,51.0806821 20.6321026,50.9209085 20.8433567,50.9020311 C21.3946107,50.8530594 21.9572166,50.85005 22.5073632,50.9053142 C22.7089267,50.9255594 22.9877378,51.1219934 23.0619397,51.3050217 C23.8986498,53.366484 24.7021352,55.4410783 25.5776075,57.672984 M20.0794642,55.3278142 C20.7846596,55.293616 21.3032427,55.2681726 21.9082101,55.2388991 C21.6197085,54.4072009 21.3840896,53.7284368 21.1487476,53.0496726 C21.0775912,53.0499462 21.0067117,53.0499462 20.9358322,53.0502198 C20.6730798,53.7489557 20.4103274,54.4476915 20.0794642,55.3278142" id="Fill-39" fill="#BDAB3B"></path>
                    <path d="M57.9725472,57.6721906 C57.1087036,57.6721906 56.4220586,57.7063887 55.7426124,57.6533132 C55.5122541,57.6352566 55.1503811,57.4344453 55.1041433,57.2530585 C54.8981498,56.4478981 54.335544,56.4172566 53.6716026,56.4555585 C52.8703322,56.5017943 51.9879381,56.2065962 51.6471075,57.4043509 C51.5770586,57.6505774 50.6295993,57.6530396 49.8477101,57.8185585 C50.1893713,56.9792 50.4186221,56.3909925 50.6667003,55.8107189 C51.2772052,54.3842472 51.920658,52.9711811 52.4984919,51.5321245 C52.7006091,51.0287283 52.9650228,50.8180679 53.5104625,50.8760679 C53.9307557,50.9206623 54.3668306,50.8396811 54.7821401,50.9026057 C55.0255114,50.9395396 55.3721564,51.0965774 55.4507883,51.2883604 C56.2930358,53.3457189 57.0912606,55.4205868 57.9725472,57.6721906 L57.9725472,57.6721906 Z M54.313671,55.2586245 C54.0190782,54.4110585 53.7649088,53.6789453 53.4387524,52.7391811 C53.0846319,53.6972755 52.8119121,54.435134 52.5073518,55.2586245 L54.313671,55.2586245 Z" id="Fill-41" fill="#BDAB3B"></path>
                    <path d="M38.6493062,57.6373085 C39.6100554,55.3958274 40.4985407,53.2886764 41.4346482,51.2023179 C41.5138339,51.0255821 41.9053322,50.91095 42.1592248,50.8972708 C44.0546971,50.7952236 44.0499902,50.8072613 44.7169772,52.5286575 C45.366798,54.205733 46.0285244,55.8781575 46.7317818,57.6715066 C45.863785,57.6715066 45.1477915,57.7076198 44.4395505,57.650167 C44.2172215,57.6321104 43.8819283,57.3981953 43.8284919,57.2020349 C43.6399414,56.5093179 43.1836547,56.4048085 42.5687199,56.4548745 C42.1464886,56.4893462 41.7159511,56.4327142 41.2953811,56.4762142 C41.1029544,56.4961858 40.7892573,56.6324311 40.7635081,56.7615632 C40.5220749,57.9595915 39.6382964,57.6652142 38.6493062,57.6373085 L38.6493062,57.6373085 Z M43.0803811,55.2713462 C42.7849577,54.4194028 42.5330033,53.6927613 42.1938339,52.7141481 C41.8388827,53.7192991 41.5786221,54.455516 41.2903974,55.2713462 L43.0803811,55.2713462 Z" id="Fill-43" fill="#BDAB3B"></path>
                    <path d="M73.8991107,57.6186226 L73.8991107,52.1253113 L71.9546319,52.1253113 C72.0196971,51.1464245 72.4344528,50.8101887 73.3456417,50.8670943 C74.5868632,50.9445189 75.8369446,50.883783 77.0831498,50.887066 C78.081,50.8898019 78.081,50.8930849 78.3473518,52.0309245 C77.7349088,52.0697736 77.1354788,52.1078019 76.4156091,52.153217 L76.4156091,57.6186226 L73.8991107,57.6186226 Z" id="Fill-45" fill="#BDAB36"></path>
                    <path d="M26.2342394,50.9285962 L28.5876596,50.9285962 C28.5876596,52.4757189 28.6255912,53.9859075 28.571601,55.4925396 C28.5444674,56.2517377 28.7651352,56.5638981 29.5605912,56.4774453 C30.1060309,56.4180774 30.6633762,56.4659547 31.2401026,56.4659547 C31.1863893,57.4325302 30.7558518,57.7512566 29.848816,57.6899736 C28.6773664,57.6111811 27.4962264,57.6708226 26.2342394,57.6708226 L26.2342394,50.9285962 Z" id="Fill-47" fill="#BDAB36"></path>
                    <polygon id="Fill-49" fill="#BFAB3B" points="69.1631433 57.590717 71.5295765 57.590717 71.5295765 50.9229057 69.1631433 50.9229057"></polygon>
                    <polygon id="Fill-51" fill="#BFAD40" points="46.8740391 54.7812736 49.8999837 54.7812736 49.8999837 53.4801038 46.8740391 53.4801038"></polygon>
                </g>
            </g>
        </g>
    </g>
</svg>